<svg id="backpack" class="hidden" version="1.1" xmlns="http://www.w3.org/2000/svg">
<style type="text/css">
	.st0{fill:#C62042;}
	.st1{fill:#FBC7A2;}
	.st2{fill:#F7A2A9;}
	.st3{fill:#52C4FC;}
	.st4{fill:#41A2DB;}
</style>
<g id="backpack_st0">
		<path class="st0" d="M161.2,138.3c2.4,6.4,15,12,21.7,10.7c1.5-0.3,3-0.8,4.3-1.8c1.2-0.9,2-2.2,2.9-3.3
			c5.8-7.1,15.4-9.4,24.3-11.8c8.9-2.3,18.5-5.7,23-13.6c2.1-3.7,2.8-8.2,2.1-12.3c-0.6-2.9-2-5.9-4.6-7.4c-2.7-1.4-6-1-8.8,0.3
			c-2.8,1.2-5.1,3.2-7.7,4.8c-3.2,2-6.6,3.5-10.3,4.5c-1.8,0.5-4,0.6-5-0.9c-0.4-0.7-0.5-1.5-0.5-2.3c0-3.4,1.3-6.7,3.6-9.2
			c1.8-2,4.2-3.6,5-6.1c1.2-3.6-1.7-7.6-5.3-8.9c-3.6-1.3-7.6-0.6-11.3,0.2c-3.4,0.7-7.1,2-8.6,5.1c-1.1,2.4-0.5,5.1,0,7.7
			c1,4.7,1.6,9.6,0.9,14.4c-0.3,1.8-1.3,4-3.1,3.9c-0.9-0.1-1.6-0.7-2.2-1.2c-2.8-2.4-6.1-4.5-9.8-5c-3.7-0.4-7.8,1.2-9.3,4.6
			C160.6,114.9,152.8,123.4,161.2,138.3z"/>
</g>
<g id="backpack_st1">
	<path class="st1" d="M161.6,226.9c0-3.7,0.1-12.1,0-22.3c-0.1,10.4-0.7,19.5-2.5,23.1c-3.8,7.9-10.2,10.3-17.8,10.8
		C133.8,239,99,206,90.5,206c-10.1,0-15.6,5.8-20,18.9c-1.6,4.8-7.3,9.6-9.8,7.1c-9.4-9.4-4.9-58.1-4.9-71.8
		c0-13.3,3.6-21,12.1-29.9c9-9.4,26.3-11.7,40.4-11.7c11.1,0,12.7-2.9,29.5,7.2c0,0,4.2,3.1,7.2,5.8l5.7,7.4c0,0-3.9-23.8-32.9-23.8
		c0.2-3.7-0.4-16.9-18.5-16.9c-21.1,0-20.6,17.8-20.6,17.8h0c-16.5,2.9-22.5,9.9-30.3,21.4c-2.9,0.4-9.8,2.1-16.8,8.1
		c-15,12.8-18.4,35.3-18.5,51.9c0,0.2-1.4,24.4-3.1,34.6c-0.1,0.9-1.6,22.3,6.2,28.9c1.5,1.2,2.7,2.4,3.9,3.6c4.8,4.8,9,8.9,25,8.9
		c0.3,0,0.7,0,1,0c2.1,4.7,3.9,6,3.9,6c11.1,11.1,33.7,8.6,50.6,8.6c16.9,0,45.4,0.3,56.4-10.8C168,266.2,161.6,243.7,161.6,226.9z
		 M98.6,106.3c9.2,0,10.4,6.4,10.6,8.4c-2.8-0.1-5.8-0.1-9-0.1c-4.3,0-8.2,0.1-11.8,0.4C88.4,113.3,88.9,106.3,98.6,106.3z
		 M41.3,255.5c-1.9-0.6-4.1-1.6-6-3.5c-3.7-3.8-5.3-9.8-4.7-18l1.9-31.7c0-0.2,1.5-21.5,5-33.8c1.2-4,2.5-7.4,3.7-10.2
		c0,0.3-0.1,0.6-0.1,0.8c-1.7,13.7-1.7,60.7-1.7,67.6C39.4,238.9,40.2,248.3,41.3,255.5z M20.8,263.8c-1.2-1.2-2.5-2.4-4-3.7
		c-7.5-6.2-5.9-27.8-5.9-28c1.8-10.2,3.1-34.5,3.1-34.7c0.3-29.7,10-44.2,18.1-51.1c6.1-5.2,12.2-7,15.4-7.7
		c-0.1,0.1-3.7,5.6-5.8,16.3c-1.6,3.2-3.6,7.8-5.2,13.5c-3.6,12.4-5.1,33.7-5.1,34L29.6,234c-0.6,8.4,1.1,14.7,5,18.7
		c2.2,2.3,4.8,3.4,6.9,3.9c1.2,7.2,2.7,12.3,4.2,15.8C29.6,272.5,25.7,268.6,20.8,263.8z"/>
</g>
<g id="backpack_st2">
	<path class="st2" d="M158.7,174.7c0,7.4,4.1,29.6,1.8,36.1c-7.5,21.4-29.4-2.5-51.1-2.5c-8.3,0-26.6-4.6-34.9,0
		c-10,5.5-11.8,30.1-17,25.1c-5.3-5-2.2-47.5-2.2-58.7c0-15.1-1.2-31.2,7.3-41.5c9.4-11.4,30-16.1,44.9-16.1
		c10.6,0,17.1-2.2,33.5,9.8C154.8,137,158.7,154.8,158.7,174.7z"/>
</g>
<g id="backpack_st3">
		<path class="st2" d="M242.5,67.2c-4.2,4.2-7.6,9.8-7.5,15.8c0.1,6,4.7,12.1,10.7,12.4c4.3,0.2,8.5-2.4,12.7-1.4
			c6.5,1.6,8.6,10.6,14.9,12.6c3.3,1.1,7.1-0.2,9.8-2.5c2.7-2.3,4.4-5.5,5.8-8.7c1-2.3,2-5,1-7.4c-0.6-1.5-1.8-2.6-2.6-3.9
			c-3.5-5.6-0.1-12.9-0.6-19.5c-0.4-6.4-4.9-12.3-10.9-14.4C269.8,48.1,246.8,62.5,242.5,67.2z"/>
</g>
<g id="backpack_st4">
		<path class="st3" d="M237.1,30.6c-5-10.1-19.3-15.2-23.2-13.9c-3.9,1.3-7.1,4.2-9.4,7.7c-1.2,1.8-2.1,3.8-2,6
			c0.4,8.1,13.9,10.2,14.7,18.3c0.4,3.9-2.6,7.3-5.1,10.3c-2.5,3.1-4.6,7.4-2.6,10.8c1.2,2.1,3.8,3.1,6.2,3.3
			c4.4,0.3,8.6-1.8,11.8-4.9s5.5-6.8,7.6-10.7c2.2-3.9,4.2-8,4.7-12.4C240.3,40.1,238.7,35.3,237.1,30.6z"/>
</g>
<g id="backpack_st5">
	<path class="st4" d="M214.4,214.6c5.4,16-1.8,25.1-6.5,28c-2.5,1.5-28.8,2.1-70.2-0.6c-6.7-0.4-26.3-13.8-35.7-24.3
		c-1.3-1.4-11.4-10.8-21.2-7.4c-5.8,2-9.1,17-14.1,21.2c-7.5,6.3-9.4,1.9-9.4,1.1c0-3.1-1.5-23.4,17-32.6s26.2-2.2,27.1-2.2
		c10.1-0.1,28.5,1.2,33,1.2c2.3,0,57.4-1.9,59.3-1.1C199.6,200.4,212.3,208.2,214.4,214.6z"/>
</g>
<g id="backpack_st6">
	<path class="st0" d="M263,47.1c-25.8-51-64.4-41.1-75.6-36.9C171,16.4,156.5,32,148.6,52c-3.6,9-5.2,17.5-4.9,25.2
		c0.3,7.1,2.4,14.3,5.8,20.6c-16,4.8-26.2,33.8-34.4,57.1c-2.6,7.4-4.9,13.9-7.1,18.8l-3.5-23.2c0-0.3-0.3-0.5-0.6-0.4
		c-0.3,0-0.5,0.3-0.4,0.6l3.8,24.8c0,0,0,0,0,0c0,0.1,0,0.1,0.1,0.2c0,0,0,0,0,0c0,0.1,0.1,0.1,0.2,0.1c0,0,0,0,0,0s0,0,0,0
		c0.1,0,0.1,0,0.2,0c0,0,0,0,0,0l0,0l0,0c0,0,0,0,0,0c0.1,0,0.2,0,0.3-0.1c0,0,0,0,0,0l22.5-17.2c0.2-0.2,0.3-0.5,0.1-0.7
		c-0.2-0.2-0.5-0.3-0.7-0.1l-20.9,16c2.2-4.9,4.4-11.3,7-18.6c8.2-23.2,18.4-52.1,34-56.5c1.9,3.3,4.1,6.4,6.7,9
		c6.3,6.5,14.5,11,24.9,13.8c6.5,1.7,13.1,2.6,19.8,2.6c13.6,0,27.3-3.6,39.8-10.6c12.1-6.8,20.5-15.7,25.1-26.5
		C271.4,74.9,270.1,59.6,263,47.1z M265.4,86.7c-4.5,10.6-12.7,19.4-24.6,26c-18.4,10.3-39.3,13.1-58.9,7.9
		c-10.2-2.7-18.2-7.1-24.4-13.5c-7.5-7.8-12.3-18.9-12.8-29.9c-0.3-7.6,1.3-15.9,4.8-24.8c7.8-19.7,22.1-35.1,38.2-41.2
		c7.2-2.7,13.9-3.9,20.1-3.9c31,0,48.9,29.7,54.2,40.3c0,0,0,0,0,0C269.1,59.8,270.4,74.8,265.4,86.7z"/>
</g>
<g id="backpack_st7">
		<path class="st1" d="M135.1,46.8c-2.6,5.8,1.1,13.1,2.1,19.4s7.1,12.2,13.2,10.5c4-1.1,6.7-4.9,7.9-8.8c1.1-3.7,2.1-8.7,6-9.3
			c3.3-0.6,5.9,2.7,7.8,5.4c2.4,3.3,5.3,6.5,9,8.2s8.4,1.8,11.7-0.6c1.9-1.5,3.2-3.6,4.2-5.8c1.7-3.6,2.7-8.1,0.3-11.3
			c-2.2-2.8-6.3-3.2-9.9-3.6s-7.7-1.3-9.2-4.6c-1.8-3.9,1.3-8.2,1.2-12.5c-0.1-2.6-1.5-5.2-3.9-6.3c-2.4-1.1-5.5-0.4-6.9,1.9
			c-1.6,2.6-0.7,6.7-3.1,8.5c-2.1,1.5-5.1,0.3-7-1.5c-1.9-1.8-3.4-4.1-5.8-5.1C148.3,29.7,137.8,41.1,135.1,46.8z"/>
</g>
</svg>
