<svg id="cyclop" class="hidden" version="1.1" xmlns="http://www.w3.org/2000/svg">

<style type="text/css">
	.st0{fill:#C62042;}
	.st1{fill:#FBC7A2;}
	.st2{fill:#F7A2A9;}
	.st3{fill:#52C4FC;}
	.st4{fill:#41A2DB;}
</style>
<g id="cyclop_st0">
	<path class="st0" d="M182,35.5c-0.1-0.3-0.4-0.4-0.7-0.2c-9.7,4.6-19.1,10.1-27.9,16.3c-0.9-0.3-1.8-0.7-2.7-1
		c-3-1-5.9-1.5-8.8-1.8V25c0-0.3-0.2-0.5-0.5-0.5S141,24.7,141,25v23.7c-3-0.1-5.9,0.2-8.6,0.9c0-0.1,0-0.2-0.1-0.3
		c-7-9.4-13.3-19.4-18.6-29.9c-0.1-0.2-0.4-0.3-0.7-0.2c-0.2,0.1-0.3,0.4-0.2,0.7c5.4,10.5,11.6,20.6,18.7,30c0,0,0,0,0,0
		c-0.4,0.1-0.9,0.3-1.3,0.4c-7,2.6-12.8,9-15.3,16.7c-11.2,30.1,7.7,42.3,13.7,45.3c4.4,2.2,9.6,3.3,15.2,3.3
		c5.5,0,11.3-1.1,16.9-3.3c5.1-2,9.2-4.5,12.3-7.6c4.5-4.5,7.3-10.9,7.6-17.1c0.3-5.1-1-10.2-3.8-15.6c-4.8-9-12.6-16.1-22.3-20.1
		c8.6-6,17.7-11.3,27.2-15.8C182,36,182.1,35.7,182,35.5z M176,72.6c2.8,5.2,4,10.1,3.7,15.1c-0.3,6-3.1,12.2-7.4,16.5
		c-3,3-7,5.5-11.9,7.4c-11,4.3-22.7,4.3-31.3,0c-5.9-2.9-24.1-14.7-13.2-44.1l0,0c2.3-7.5,7.9-13.6,14.6-16.1c2.9-1.1,6-1.6,9.2-1.6
		c3.4,0,7,0.6,10.7,1.8C161.6,55.1,170.7,62.6,176,72.6z"/>
</g>
<g id="cyclop_st1">
		<path class="st1" d="M220.9,145.3c-8.2-11.8-22.3-19.9-36.6-18.7l-3,0c-0.4-0.3-0.8-0.5-1.3-0.7c-4.3-2-14.1-15.7-18.5-14.1
			c-7.1,2.7-14.5,4.5-22.6,3.6c-8.6-1-11.8,7.7-19.2,11.4c-5.8,0.4-11.7,1.3-17.3,2.8c-6.1,1.5-12.1,3.8-16.8,7.9
			c-6.3,5.6-9.3,13.9-11.5,22c-2.3,8.3-4.1,16.8-5.4,25.4c-2,13.5-2.3,28.6,6,39.5c1.7,2.3,4.4,4.5,7.2,3.8c1.4-0.4,2.4-1.4,3.4-2.5
			c13.3-15.1,9.3-39.7,21.6-55.5c3.3-4.2,7.5-7.5,12.2-10c0.4,5.2,0.9,11.8,1.4,19.6c1.2,21.2-0.7,35-0.7,35c0,22.2-6.6,68.7,6.6,66
			c13.3-2.7,11.1-36.8,16.7-55.1c1.2-4,3.2-8.8,7.4-9.3c3.9,17.7,8.1,35.2,12.8,52.7c1.7,6.4,5,14,11.6,14.2
			c13.8,2.1-2.8-83.6,0.7-106.6c0.9-6.2,1.7-11.2,2.4-15.4c5.3,4.5,9.6,10.3,12.6,16.6c4.5,9.1,6.8,19.1,8.8,29.1
			c1,5,2.4,10.6,6.9,12.9c4.8,2.5,10.8-0.3,14.6-4.1c7.5-7.6,10.1-18.9,10.5-29.6C231.9,171.9,229.1,157.1,220.9,145.3z"/>
</g>
<g id="cyclop_st2">
		<path class="st2" d="M160.9,171.5c14.5-4.9,27.8-13.7,35.3-26.9c1.1-1.8,2-4,1.4-6.1c-0.8-3-4.5-4.6-7.5-4.2s-5,3.4-8,4
			c-11.4,2.4-18,18.9-22.7,21.5c-2.1-7.6,17.6-26,16.6-33.7c-0.6-5-6.4-8.4-11.3-7.9c-5,0.5-8.9,4.1-11.5,8.2
			c-0.9,1.5-1.8,3.1-2,4.9c-0.2,1.5,0,3.1,0,4.7c-0.2,5.6-3.9,10.3-8.3,13.7c-4.4,3.3-9.5,5.7-13.8,9c-1.7,1.3-3.5,3-3.6,5.2
			c-0.1,1.4,0.6,2.8,1.3,4.1c3.9,7.3,10.2,13.5,17.6,17.4c2.5,1.3,5.3,2.4,8.1,2.4c2.8,0,5.7-1.3,6.8-3.8c1.2-2.5,0.8-6.3-1.9-7.4
			C157.3,176.6,153,174.1,160.9,171.5z"/>
</g>
<g id="cyclop_st3">
		<path class="st2" d="M189.5,184.3c0,3.9,6.6,3.8,10.4,3.4c7.8-0.7,15.5-2.8,22.6-6.1c3.1-1.4,6.1-3.1,8.2-5.8
			c2.4-2.9,3.4-6.9,2.7-10.6c-0.2-0.9-0.4-1.8-1-2.5c-1.3-1.7-3.8-2.1-5.8-1.5c-2,0.6-3.7,2.1-5.3,3.5c-8.3,7.4-17.4,15.4-28.5,16.4
			C192.8,181.3,189.6,179.1,189.5,184.3z"/>
</g>
<g id="cyclop_st4">
		<path class="st3" d="M97.5,134.6c-6,5-5.7,15-8,22.4c-2.2,7.4,1.3,17.1,8.9,18.6c5,0.9,10-1.8,13.4-5.5c3.2-3.5,6.9-8.4,11.5-7.1
			c3.9,1.1,5,6.1,5.8,10.1c0.9,4.9,2.4,9.9,5.6,13.8c3.2,3.9,8.3,6.5,13.2,5.5c2.9-0.6,5.4-2.3,7.6-4.2c3.7-3.1,7.3-7.5,6.3-12.2
			c-0.9-4.3-5.2-6.9-8.9-9.1c-3.8-2.3-7.8-5.5-7.7-9.9c0.1-5.2,5.7-8.4,7.8-13.1c1.3-2.9,1.1-6.5-1-9c-2-2.4-5.9-3.3-8.6-1.6
			c-3.2,2-4.3,7-8,7.7c-3.1,0.6-5.8-2.4-6.9-5.3c-1.2-2.9-1.6-6.3-3.7-8.7C121.1,122.7,103.5,129.6,97.5,134.6z"/>
</g>
<g id="cyclop_st5">
		<path class="st4" d="M152.9,255.9c0-22.8-6-45.4-3.9-68.1c0.7-7.1,1.8-14.5,6-20.2c4.7-6.3,7.4-16.4,19.9-11.8s1.7,53.8,3.7,73.9
			c0.9,9.2,7.7,18.5,7,27.7c-0.7,9.2-3.1,25.9-11.4,25.9C165.9,283.5,152.9,280.6,152.9,255.9z"/>
</g>
<g id="cyclop_st6">
		<path class="st0" d="M152.4,80.5c-2.3-4.6-5.8-3.6-6.7-3.3c-1.5,0.6-2.7,1.9-3.4,3.7c-0.3,0.7-0.5,1.5-0.4,2.2
			c0,1.1,0.5,2.1,1.2,2.7c0.6,0.7,1.4,1,2.2,1.2c1.8,0.5,3.6,0.2,5.3-0.7c0.9-0.5,1.8-1.2,2.2-2.4C153.2,82.9,153,81.5,152.4,80.5z"
			/>
</g>
<g id="cyclop_st7">
		<path class="st1" d="M163.8,77.3C155.9,61.6,144,65.1,141,66.2c-5,1.9-9.3,6.5-11.7,12.6c-0.9,2.3-1.6,5-1.5,7.6
				c0.2,3.6,1.8,7,3.9,9.2c2.2,2.2,4.8,3.4,7.5,4.2c6,1.6,12.3,0.7,18-2.4c3-1.7,6-4.2,7.5-8C166.4,85.5,165.9,80.9,163.8,77.3z
				 M152.6,84c-0.5,1.1-1.3,1.8-2.2,2.3c-1.6,0.9-3.5,1.2-5.2,0.7c-0.8-0.2-1.6-0.6-2.2-1.2s-1.1-1.6-1.1-2.7c0-0.8,0.2-1.5,0.4-2.2
				c0.7-1.8,2-3.1,3.4-3.7c0.9-0.3,4.3-1.3,6.6,3.2C152.9,81.5,153.1,82.9,152.6,84z"/>
</g>
</svg>
