<svg id="cycle" class="hidden" version="1.1" xmlns="http://www.w3.org/2000/svg">

<style type="text/css">
	.st0{fill:#C62042;}
	.st1{fill:#FBC7A2;}
	.st2{fill:#F7A2A9;}
	.st3{fill:#52C4FC;}
	.st4{fill:#41A2DB;}
</style>
<g id="cycle_st0">
	<path class="st0" d="M258,141.9l9.4-11.6l-0.8-0.6l-8.8,10.8C250.5,66.4,197,51,179.2,48l-9.4-11.8l-0.8,0.6l8.8,10.9
		c-0.7-0.1-1.3-0.2-1.8-0.2c-29.3-3.6-63.5,8.5-91.6,32.6c-5.3,4.5-10,9.1-14.1,13.9H55v1h14.3c-5.4,6.3-9.7,12.9-13,19.5
		c-8.5,17.4-10.6,38.6-5.7,56.8c3.5,12.9,10.1,24.6,20.3,35.5l0,16.2h1l0-15.1c1.4,1.4,2.8,2.8,4.2,4.2c24.2,23,56.4,35.5,91,35.5
		c1.3,0,2.6,0,3.8-0.1c11.7-0.3,22.5-2.2,32.3-5.5l14.3,5.8l0.4-0.9l-13.2-5.4c9.3-3.4,17.7-8.1,25.1-14.3
		c18.3-15.1,29.1-38.1,28.7-61.3C258.9,157.2,258.7,149.3,258,141.9z M258,165.8L258,165.8c0,23-10.4,45.7-28.5,60.6
		c-7.4,6.1-15.8,10.8-25.1,14.1l5.8-14.2l-0.9-0.4l-6.1,15c-9.8,3.3-20.5,5.2-32,5.5c-35.8,1-69.3-11.5-94.1-35.1
		c-1.3-1.2-2.5-2.4-3.7-3.6l14.7-0.2v-1l-15.7,0.2c-10.4-11-17.2-22.8-20.6-35.7c-4.8-18-2.7-38.9,5.6-56.1
		c3.2-6.5,7.4-12.9,12.7-19.2V111h1V94.6c4.1-4.7,8.7-9.3,13.9-13.7c24.6-21.1,54-33,80.5-33c3.5,0,7.1,0.2,10.5,0.6
		c0.6,0.1,1.3,0.2,2,0.3l-12.2,9.8l0.6,0.8L179.4,49c17.8,3.1,70.3,18.5,77.8,92.2l-12.4-10l-0.6,0.8l13.2,10.7
		C258,149.8,258.2,157.5,258,165.8z"/>
</g>
<g id="cycle_st1">
	<path class="st1" d="M255.6,228.5c29.9-8.3,28-30,27.1-35.5c-1.5-9.2-8.1-18.3-17.7-24.6c-3.7-2.4-8-4.5-12.6-5.2
			c-6.3-1-12.6,0.6-17.2,3.6c-4.6,3-7.6,7.1-9.8,11.5c-4.8,9.8-5.5,21.1-2.1,31.9c1.9,5.8,5.2,11.7,11.2,15.8
			C240.5,230.2,248.7,230.8,255.6,228.5z"/>
</g>
<g id="cycle_st2">
	<path class="st2" d="M83.5,45.4c-10.8,29,7.9,40.3,12.9,42.8c8.4,4.2,19.6,4.2,30.3,0c4.1-1.6,8.3-3.9,11.6-7.2
			c4.5-4.5,6.9-10.6,7.2-16.1c0.3-5.5-1.3-10.3-3.6-14.7c-5.1-9.7-13.8-16.8-24.7-20.4c-5.8-1.9-12.5-2.7-19.4-0.2
			S85.7,38.4,83.5,45.4z"/>
</g>
<g id="cycle_st3">
	<path class="st2" d="M83.5,45.4c-10.8,29,7.9,40.3,12.9,42.8c8.4,4.2,19.6,4.2,30.3,0c4.1-1.6,8.3-3.9,11.6-7.2
			c4.5-4.5,6.9-10.6,7.2-16.1c0.3-5.5-1.3-10.3-3.6-14.7c-5.1-9.7-13.8-16.8-24.7-20.4c-5.8-1.9-12.5-2.7-19.4-0.2
			S85.7,38.4,83.5,45.4z"/>
</g>
<g id="cycle_st4">
	<path class="st3" d="M161.5,247c0.8-31-20.5-35.6-26-36.3c-9.3-1.2-19.9,2.4-28.7,9.8c-3.4,2.9-6.6,6.4-8.6,10.5
			c-2.8,5.7-3.1,12.3-1.6,17.5c1.5,5.3,4.6,9.4,8.2,12.7c8,7.5,18.5,11.5,29.9,11.3c6.1-0.1,12.7-1.5,18.4-6.1
			S161.7,254.3,161.5,247z"/>
</g>
<g id="cycle_st5">
	<path class="st4" d="M81,146.6c-14-27.7-34.9-21.6-40.1-19.6c-8.7,3.3-16.4,11.5-20.6,22.2c-1.6,4.1-2.8,8.7-2.6,13.4
			c0.3,6.4,3.1,12.3,6.9,16.2c3.8,3.9,8.5,6.1,13.2,7.3c10.6,2.8,21.8,1.3,31.7-4.3c5.3-3,10.5-7.4,13.3-14.1S84.7,152.9,81,146.6z"
			/>
</g>
<g id="cycle_st6">
	<path class="st0" d="M260.9,72.1c-14-27.7-34.9-21.6-40.1-19.6c-8.7,3.3-16.4,11.5-20.6,22.2c-1.6,4.1-2.8,8.7-2.6,13.4
			c0.3,6.4,3.1,12.3,6.9,16.2c3.8,3.9,8.5,6.1,13.2,7.3c10.6,2.8,21.8,1.3,31.7-4.3c5.3-3,10.5-7.4,13.3-14.1
			C265.5,86.6,264.5,78.4,260.9,72.1z"/>
</g>
<g id="cycle_st7">
	<path class="st1" d="M255.6,228.5c29.9-8.3,28-30,27.1-35.5c-1.5-9.2-8.1-18.3-17.7-24.6c-3.7-2.4-8-4.5-12.6-5.2
			c-6.3-1-12.6,0.6-17.2,3.6c-4.6,3-7.6,7.1-9.8,11.5c-4.8,9.8-5.5,21.1-2.1,31.9c1.9,5.8,5.2,11.7,11.2,15.8
			C240.5,230.2,248.7,230.8,255.6,228.5z"/>
</g>
</svg>
