
<svg id="earth" version="1.1" xmlns="http://www.w3.org/2000/svg">
<style type="text/css">
	.st0{fill:#C62042;}
	.st1{fill:#FBC7A2;}
	.st2{fill:#F7A2A9;}
	.st3{fill:#52C4FC;}
	.st4{fill:#41A2DB;}
</style>
<g id="earth_st0">
		<path class="st0" d="M150.1,296.4C70,296.4,4.7,231.2,4.7,151S70,5.6,150.1,5.6c80.2,0,145.4,65.2,145.4,145.4
			S230.3,296.4,150.1,296.4z M150.1,6.6C70.5,6.6,5.7,71.4,5.7,151c0,79.6,64.8,144.4,144.4,144.4S294.6,230.7,294.6,151
			C294.6,71.4,229.8,6.6,150.1,6.6z"/>
</g>
<g id="earth_st1">
		<path class="st1" d="M29.4,201.9c-4.1,1.5-4.3,7.2-5.1,11.3c-0.5,2.4,0.3,3.7,0.7,6.1c0.6,3.6,3.2,6.7,6.1,9.2c2.9,2.4,5,5.6,8,8
			c0,0,7.9,4.8,11.4,20.5c0,0,14,15,31.3,22.2c2.1,0.9,11.9,6.6,12.7,5.9c0.7-0.6,6.4,0.7,4.4-3.3c-0.7-1.4-5.2-0.8-6.4-1.9
			c-3.7-3.5-10-7.9-10.3-12.7c-0.6-9.2-2.9-20,1-28.5c2.1-4.6,5.1-9.1,4.6-14.1c-0.4-3.2-2.2-6-4-8.7c-1.3-1.9-2.5-3.8-3.8-5.6
			c0,0-6-11.7-36.9-11.7C43.1,198.5,39,198.3,29.4,201.9z"/>
</g>
<g id="earth_st2">
		<path class="st2" d="M27.5,151.7c19.6-13.5,37.9-30.4,51.1-49c2.1-2.9,4-5.9,5.4-9.2c3.9-9.4,2.4-20.1,0.9-30.1
			c-0.8-4.9-1.6-10-4.4-14c-5.7-8.3-18-9.6-27.1-5.5C44.2,48,37.7,56.2,32.1,64.6C18.2,85.3,7.9,109,5.4,136.7
			C3.6,150.2,5,166.6,5,166.6c0.6,8.6,2.4,17.9,9.1,24.3c3.5,3.3,8.4,5.6,13.8,6.3c0,0,6.3,1.4,10.1-2.8c3.8-4.1-11-5.3-11-5.3
			c-2.8-0.4-5.7-1.4-7.3-3.3c-1.3-1.5-2.5-4.8-2.9-6.6C16.9,179.2,12.9,162.6,27.5,151.7z"/>
</g>
<g id="earth_st3">
		<path class="st2" d="M231.6,135.7c-7.4,4.4-12.3,12.9-12.4,21.5c0,2.7,0.4,5.5,1.7,7.8c3.1,5.5,10.3,7.2,16.6,7
			c6.3-0.1,12.7-1.6,18.9-0.1c4.6,1.1,8.8,3.8,11.6,7.6c6.4,8.5,5.3,20.2,7.8,30.5c0.3,1.2,0.7,2.5,1.8,3.1c2,1.1,4.2-1.1,5.4-3.1
			c5.4-9.3,7.9-20.1,9.9-30.7c2.5-13.6,4.5-27.7,1.8-41.2c-1.5-7.8-5.3-16-12.7-18.9c-5.7-2.3-12.2-0.8-18.2,0.7
			C253.9,122.5,240.7,130.8,231.6,135.7"/>
</g>
<g id="earth_st4">
		<path class="st3" d="M111.7,103.8c-3.2,3.8-2.1,12.1-2.1,17.1c5.6,5.6,16.3,4.6,20.7-2c1.7-2.5,2.6-5.6,4.8-7.6
			c2.6-2.3,6.3-2.6,9.8-2.7c1.4-0.1,2.9-0.1,4.2,0.6c2.9,1.7,2.3,5.9,1.4,9.2c-0.9,3.2-1.1,7.6,2,8.9c3.2,1.3,6.2-2.3,7-5.6
			s0.6-7.2,2.9-9.7c1.1-1.2,2.6-1.9,4.2-2.3c6.1-1.8,13.2,0.4,17.3,5.2c1.8,2.1,3,4.6,4.9,6.6c3.7,3.9,15.1,10.3,20.4,9.6
			c5.3-0.7,10.2-3.3,14.4-6.5c3-2.4,5.9-5.3,6.7-9.1c0.9-3.7-5.6-11.5-11-16.8c-7.2-6.3-6.4-18.7-13.8-24.7
			c-6.2-5.1-15.3-3.5-22.9-1c-7.6,2.5-15.8,5.7-23.3,3.2c0.7-3.6,0.6-5,0.3-6.6s-0.9-7.5-6.3-7.5c-5.4,0-3.7,4.9-3.4,11
			c-13.4,0.3-14.2-4.9-31.8,2c-4.7,1.8-14.6,6.5-14.4,11.5c0.1,4,4.1,5.3,7.8,7S113.9,100.4,111.7,103.8"/>
</g>
<g id="earth_st5">
		<path class="st0" d="M112.8,153.5c-17.6,19.1-12,24.5-2.1,32.6c4.5,3.6,10.5,5.3,14.1,9.9c3.5,4.4,3.8,10.5,3.8,16.2
			c-0.2,21.4-1.4,18.2,10.6,36c2,3,4.7,6,8.3,6.6c5.2,0.9,9.9-3.5,11.7-8.5c1.7-4.9,1.3-10.3,1.4-15.5c0.4-12.1,4-14,11-23.9
			c6.4-9,13.8,0.3,20.3-8.6c8.9-12.1,13.6-27.3,13-42.4c-0.1-3-0.5-6.1-2.2-8.5c-3.1-4.3-33.4-6.4-38.7-6.6
			C149,140.3,130.4,134.4,112.8,153.5z"/>
</g>
<g id="earth_st6">
		<path class="st4" d="M195.3,134.6c-9.3,16.5-14.6,35.7-11.3,54.3c0.5,2.6,1.2,5.4,3.4,7c3,2.2,7.6,0.7,10-2.1
			c2.4-2.9,1.9-7.3,4.2-10.3c8.5-11.5,1.8-32.7,4-39c7.7,5.5,4,39.1,10.8,45.7c4.4,4.2,12.2,2.9,16.2-1.6s4.9-11.2,4.1-17.2
			c-0.3-2.2-0.8-4.4-2-6.3c-1-1.6-2.4-3-3.5-4.5c-4.1-5.5-4.3-13.1-3-19.8c1.4-6.7,4.2-13.1,5.6-19.8c0.6-2.7,0.8-5.7-0.8-7.9
			c-1-1.4-2.6-2.2-4.2-2.9c-9.1-3.8-19.5-4.7-29.1-2.4c-3.3,0.8-6.6,2-9.1,4.3s-4.1,5.9-3.2,9.2c0.8,3.3,4.1,6.6,7.4,5.5
			C194.5,126.8,200.3,125.7,195.3,134.6z"/>
</g>
<g id="earth_st7">
		<path class="st1" d="M177.8,27.4c12.3-4.2,17-8.8,32.9-5.3c44,9.7,72.2,63.2,77.5,82c2.5,8.7,6.8,21,7.5,35.5
			c0.1,3.2,0.8,6.4-0.1,9.5c-1.3,4.8-5.5,8.4-10.1,10.1c-7.3,2.8-15.5,1.6-23-0.5c-7.5-2.1-14.9-4.9-22.7-5.4
			c-5.9-0.4-11.9,0.6-17.8,0s-12.2-3.4-14.5-8.8c-1.7-4-1-8.8,1.2-12.6c2.2-3.8,5.6-6.7,9.3-9.1c2.8-1.8,5.7-3.4,7.9-5.9
			s3.4-6.2,1.9-9.1c-1.3-2.6-4.3-3.9-6.7-5.7c-3.9-3-5.9-7.8-7.4-12.5c-2.8-8.8-4.3-18.1-4.2-27.4c0-5.3,0.2-11.5-3.8-15
			c-3.1-2.7-7.6-2.8-11.7-2.7c-1.4,0-2.9,0.1-4.1,0.7c-2.6,1.4-9.1,5.7-10.4,8.3c-2.8,5.4-4.2,10.5-10.2,10.7
			c-4.9,0.1-4.4-5.6-7.4-9.4c-1.8-2.3-13,0.5-13-2.4c0,0-5.3-6.2,6.5-11.5C167,35.5,165.5,31.6,177.8,27.4z"/>
</g>
</svg>
