
<svg id="flower" version="1.1" xmlns="http://www.w3.org/2000/svg">
<style type="text/css">
	.st0{fill:#C62042;}
	.st1{fill:#FBC7A2;}
	.st2{fill:#F7A2A9;}
	.st3{fill:#52C4FC;}
	.st4{fill:#41A2DB;}
</style>
<g id="flower_st0">
	<path class="st0" d="M135,289.6c1.7-4.5,4.6-8.4,8-12.6c3.9-4.9,8-9.8,12.1-14.6c0.2-0.2,0.2-0.5-0.1-0.7c-0.2-0.2-0.5-0.2-0.7,0.1
		c-4.1,4.8-8.2,9.7-12.2,14.6c-2.2,2.7-4.1,5.2-5.8,7.9c4.4-15.2,10.2-30.9,17-45.9c0.1-0.3,0-0.5-0.2-0.7c-0.3-0.1-0.5,0-0.7,0.2
		c-7.4,16.4-13.7,33.7-18.2,50.2l-1.5-2.3c-7.4-10.8-15-22-23.5-32.3c-0.2-0.2-0.5-0.2-0.7-0.1c-0.2,0.2-0.2,0.5-0.1,0.7
		c8.4,10.3,16.1,21.4,23.4,32.2l2.1,3.1c0,0,0.1,0.2,0.4,0.2C134.8,289.9,135,289.6,135,289.6z"/>
</g>
<g id="flower_st1">
		<path class="st1" d="M134.7,289.6c-0.2,0-0.3-0.1-0.4-0.3c-0.2-0.4-21.2-41,1.4-163.7c0.1-0.3,0.3-0.5,0.6-0.4
			c0.3,0,0.5,0.3,0.4,0.6c-22.5,122.3-1.7,162.6-1.5,163c0.1,0.2,0,0.5-0.2,0.7C134.9,289.6,134.8,289.6,134.7,289.6z"/>
</g>
<g id="flower_st2">
		<path class="st2" d="M145.6,116.6c21-12.7,41.3-16.5,61.3-14.2c6.1,0.7,12.3,1.9,17.1,5.6c4.8,3.8,7.5,10.8,4.7,16.2
			c-1.4,2.7-3.9,4.5-6.3,6.3c-5,3.7-10.3,7.5-16.5,8c-2.2,0.2-4.3-0.1-6.5-0.3C180.7,135.5,161.2,127,145.6,116.6z"/>
</g>
<g id="flower_st3">
		<path class="st2" d="M150.1,114.2c2.6-27.5,12.7-48.5,28.2-65.1c4.7-5,10-9.9,16.6-11.7s14.8,0.4,17.8,6.6c1.5,3.1,1.5,6.6,1.5,10
			c0,7-0.2,14.4-3.8,20.3c-1.3,2.1-3,3.9-4.7,5.6C190.8,95.1,170,107.1,150.1,114.2z"/>
</g>
<g id="flower_st4">
		<path class="st3" d="M108.4,94.2c-6.6,5.5-6.4,16.7-8.9,24.9c-2.5,8.3,1.5,19.1,10,20.7c5.5,1.1,11.1-2,14.9-6.2
			c3.6-3.9,7.7-9.4,12.8-7.9c4.4,1.3,5.6,6.8,6.4,11.3c1,5.5,2.7,11.1,6.2,15.4c3.5,4.3,9.3,7.2,14.7,6.1c3.2-0.7,6-2.6,8.5-4.7
			c4.2-3.4,8.1-8.4,7-13.6c-1-4.8-5.8-7.6-10-10.2c-4.2-2.5-8.7-6.2-8.6-11.1c0.1-5.8,6.4-9.3,8.8-14.6c1.4-3.2,1.2-7.3-1.1-10
			c-2.3-2.7-6.6-3.7-9.5-1.8c-3.5,2.3-4.7,7.8-8.9,8.6c-3.5,0.7-6.4-2.6-7.7-5.9s-1.8-7-4.1-9.7C134.7,80.9,115,88.7,108.4,94.2z"/>
</g>
<g id="flower_st5">
		<path class="st0" d="M165.8,79.5c-2.1-20-9.3-39.7-23.6-53.8c-2-2-4.4-4-7.2-4c-4,0-7,4-7.3,8s2.8,7.5,2.8,11.5
			C130.2,56.2,149,70.4,151,77.2c-10,0-27.5-31.3-37.4-32.8c-6.4-1-12.3,5-13,11.4s2.6,12.7,7,17.4c1.6,1.7,3.4,3.3,5.6,4.3
			c1.9,0.8,3.9,1.1,5.8,1.7c6.9,2.2,11.8,8.6,14.7,15.3s4.5,13.9,7.4,20.6c1.2,2.7,2.8,5.4,5.5,6.3c1.7,0.6,3.6,0.3,5.4-0.1
			c10.2-2.3,19.7-8,26.6-15.9c2.4-2.7,4.5-5.8,5.2-9.3s-0.1-7.6-2.8-9.9c-2.8-2.3-7.7-3.2-9.8-0.3C171.3,85.7,167,90.2,165.8,79.5z"
			/>
</g>
<g id="flower_st6">
	<path class="st4" d="M154.9,102.5c23-5,46.5-7.9,70-8.8c0.8,0,0.8-1.3,0-1.3c-23.1,0.9-46.2,3.8-68.8,8.6
		c12.7-14.1,27.3-26.3,43.4-36.4c0.7-0.4,0.1-1.6-0.7-1.1c-16,10-30.6,22.2-43.4,36.2c4.4-25.5,14-49.9,28.2-71.5
		c4.3-6.5,8.9-12.7,14-18.6c0.5-0.6-0.4-1.6-0.9-0.9c-17.5,20.5-30.5,44.6-37.9,70.4c-2.1,7.4-3.8,14.9-5,22.5c0,0-0.1,0.5,0.1,0.7
		C154.2,102.7,154.6,102.6,154.9,102.5z"/>
</g>
<g id="flower_st7">
	<path class="st1" d="M141.9,193.7c-0.4-0.5-1.2-0.7-1.8-0.8c-5.4-0.7-11.4,3.6-12.6,8.8l-0.9-0.1c-1.1-3.2-3.3-6.2-3.3-6.2
		c-3.3-4.2-8.4-7-13.7-7.6c-0.8-0.1-1.8-0.1-2.4,0.5c-0.8,0.8-0.5,2.2,0,3.2c3.4,7.7,11.5,11.3,19.2,14.3h0.7c3.8-3,11.1-4.9,14-8.6
		C142,196.4,142.8,194.8,141.9,193.7z"/>
</g>
</svg>
